<mxfile host="app.diagrams.net" agent="Mozilla/5.0 (Windows NT 10.0; Win64; x64) AppleWebKit/537.36 (KHTML, like Gecko) Chrome/138.0.0.0 Safari/537.36 Edg/138.0.0.0" version="28.0.7">
  <diagram name="Page-1" id="qItH3wJwmk5mczzd3ZjL">
    <mxGraphModel dx="1426" dy="761" grid="1" gridSize="10" guides="1" tooltips="1" connect="1" arrows="1" fold="1" page="1" pageScale="1" pageWidth="850" pageHeight="1100" math="0" shadow="0">
      <root>
        <mxCell id="0" />
        <mxCell id="1" parent="0" />
        <mxCell id="lSw5uee_YllzGAp6HlX9-29" style="edgeStyle=orthogonalEdgeStyle;rounded=0;orthogonalLoop=1;jettySize=auto;html=1;" parent="1" source="lSw5uee_YllzGAp6HlX9-18" target="lSw5uee_YllzGAp6HlX9-28" edge="1">
          <mxGeometry relative="1" as="geometry" />
        </mxCell>
        <mxCell id="lSw5uee_YllzGAp6HlX9-18" value="adzuna API" style="ellipse;whiteSpace=wrap;html=1;" parent="1" vertex="1">
          <mxGeometry x="30" y="160" width="80" height="50" as="geometry" />
        </mxCell>
        <mxCell id="lSw5uee_YllzGAp6HlX9-30" style="edgeStyle=orthogonalEdgeStyle;rounded=0;orthogonalLoop=1;jettySize=auto;html=1;" parent="1" source="lSw5uee_YllzGAp6HlX9-20" target="lSw5uee_YllzGAp6HlX9-28" edge="1">
          <mxGeometry relative="1" as="geometry" />
        </mxCell>
        <mxCell id="lSw5uee_YllzGAp6HlX9-20" value="juju API" style="ellipse;whiteSpace=wrap;html=1;" parent="1" vertex="1">
          <mxGeometry x="30" y="220" width="80" height="50" as="geometry" />
        </mxCell>
        <mxCell id="lSw5uee_YllzGAp6HlX9-31" style="edgeStyle=orthogonalEdgeStyle;rounded=0;orthogonalLoop=1;jettySize=auto;html=1;" parent="1" source="lSw5uee_YllzGAp6HlX9-21" target="lSw5uee_YllzGAp6HlX9-28" edge="1">
          <mxGeometry relative="1" as="geometry" />
        </mxCell>
        <mxCell id="lSw5uee_YllzGAp6HlX9-21" value="USAJOBS API" style="ellipse;whiteSpace=wrap;html=1;aspect=fixed;" parent="1" vertex="1">
          <mxGeometry x="30" y="280" width="80" height="80" as="geometry" />
        </mxCell>
        <mxCell id="lSw5uee_YllzGAp6HlX9-34" style="edgeStyle=orthogonalEdgeStyle;rounded=0;orthogonalLoop=1;jettySize=auto;html=1;entryX=0;entryY=0.5;entryDx=0;entryDy=0;" parent="1" source="lSw5uee_YllzGAp6HlX9-25" target="lSw5uee_YllzGAp6HlX9-27" edge="1">
          <mxGeometry relative="1" as="geometry" />
        </mxCell>
        <mxCell id="lSw5uee_YllzGAp6HlX9-25" value="s3 - raw data" style="shape=cube;whiteSpace=wrap;html=1;boundedLbl=1;backgroundOutline=1;darkOpacity=0.05;darkOpacity2=0.1;" parent="1" vertex="1">
          <mxGeometry x="243" y="197" width="120" height="80" as="geometry" />
        </mxCell>
        <mxCell id="lSw5uee_YllzGAp6HlX9-26" value=".json&lt;div&gt;Config&lt;/div&gt;" style="shape=note;whiteSpace=wrap;html=1;backgroundOutline=1;darkOpacity=0.05;size=20;" parent="1" vertex="1">
          <mxGeometry x="30" y="50" width="120" height="40" as="geometry" />
        </mxCell>
        <mxCell id="lSw5uee_YllzGAp6HlX9-36" style="edgeStyle=orthogonalEdgeStyle;rounded=0;orthogonalLoop=1;jettySize=auto;html=1;" parent="1" source="lSw5uee_YllzGAp6HlX9-27" target="lSw5uee_YllzGAp6HlX9-35" edge="1">
          <mxGeometry relative="1" as="geometry" />
        </mxCell>
        <mxCell id="lSw5uee_YllzGAp6HlX9-27" value="Python/&lt;div&gt;pySpark&lt;/div&gt;" style="ellipse;whiteSpace=wrap;html=1;" parent="1" vertex="1">
          <mxGeometry x="405" y="212" width="90" height="50" as="geometry" />
        </mxCell>
        <mxCell id="lSw5uee_YllzGAp6HlX9-33" style="edgeStyle=orthogonalEdgeStyle;rounded=0;orthogonalLoop=1;jettySize=auto;html=1;" parent="1" source="lSw5uee_YllzGAp6HlX9-28" target="lSw5uee_YllzGAp6HlX9-25" edge="1">
          <mxGeometry relative="1" as="geometry" />
        </mxCell>
        <mxCell id="lSw5uee_YllzGAp6HlX9-28" value="Python" style="ellipse;whiteSpace=wrap;html=1;" parent="1" vertex="1">
          <mxGeometry x="121" y="212" width="90" height="50" as="geometry" />
        </mxCell>
        <mxCell id="lSw5uee_YllzGAp6HlX9-39" style="edgeStyle=orthogonalEdgeStyle;rounded=0;orthogonalLoop=1;jettySize=auto;html=1;entryX=0;entryY=0.5;entryDx=0;entryDy=0;" parent="1" source="lSw5uee_YllzGAp6HlX9-35" target="lSw5uee_YllzGAp6HlX9-38" edge="1">
          <mxGeometry relative="1" as="geometry" />
        </mxCell>
        <mxCell id="yJXD0WaHyucNbzyFDgN4-2" style="edgeStyle=orthogonalEdgeStyle;rounded=0;orthogonalLoop=1;jettySize=auto;html=1;" edge="1" parent="1" source="lSw5uee_YllzGAp6HlX9-35" target="lSw5uee_YllzGAp6HlX9-46">
          <mxGeometry relative="1" as="geometry">
            <Array as="points">
              <mxPoint x="580" y="580" />
              <mxPoint x="325" y="580" />
            </Array>
          </mxGeometry>
        </mxCell>
        <mxCell id="lSw5uee_YllzGAp6HlX9-35" value="Redshift" style="shape=cylinder3;whiteSpace=wrap;html=1;boundedLbl=1;backgroundOutline=1;size=15;" parent="1" vertex="1">
          <mxGeometry x="550" y="197" width="60" height="80" as="geometry" />
        </mxCell>
        <mxCell id="lSw5uee_YllzGAp6HlX9-38" value="Dashboard" style="swimlane;whiteSpace=wrap;html=1;" parent="1" vertex="1">
          <mxGeometry x="670" y="187" width="120" height="100" as="geometry" />
        </mxCell>
        <mxCell id="lSw5uee_YllzGAp6HlX9-42" style="edgeStyle=orthogonalEdgeStyle;rounded=0;orthogonalLoop=1;jettySize=auto;html=1;entryX=0;entryY=0.5;entryDx=0;entryDy=0;" parent="1" source="lSw5uee_YllzGAp6HlX9-40" target="lSw5uee_YllzGAp6HlX9-41" edge="1">
          <mxGeometry relative="1" as="geometry" />
        </mxCell>
        <mxCell id="lSw5uee_YllzGAp6HlX9-40" value="Telegram" style="ellipse;shape=cloud;whiteSpace=wrap;html=1;" parent="1" vertex="1">
          <mxGeometry x="80" y="420" width="120" height="80" as="geometry" />
        </mxCell>
        <mxCell id="lSw5uee_YllzGAp6HlX9-41" value="Python" style="ellipse;whiteSpace=wrap;html=1;" parent="1" vertex="1">
          <mxGeometry x="280" y="435" width="90" height="50" as="geometry" />
        </mxCell>
        <mxCell id="lSw5uee_YllzGAp6HlX9-47" style="edgeStyle=orthogonalEdgeStyle;rounded=0;orthogonalLoop=1;jettySize=auto;html=1;" parent="1" source="lSw5uee_YllzGAp6HlX9-44" target="lSw5uee_YllzGAp6HlX9-46" edge="1">
          <mxGeometry relative="1" as="geometry">
            <Array as="points">
              <mxPoint x="465" y="540" />
            </Array>
          </mxGeometry>
        </mxCell>
        <mxCell id="lSw5uee_YllzGAp6HlX9-44" value="MongoDB" style="shape=cylinder3;whiteSpace=wrap;html=1;boundedLbl=1;backgroundOutline=1;size=15;" parent="1" vertex="1">
          <mxGeometry x="435" y="420" width="60" height="80" as="geometry" />
        </mxCell>
        <mxCell id="lSw5uee_YllzGAp6HlX9-45" style="edgeStyle=orthogonalEdgeStyle;rounded=0;orthogonalLoop=1;jettySize=auto;html=1;entryX=0;entryY=0.5;entryDx=0;entryDy=0;entryPerimeter=0;" parent="1" source="lSw5uee_YllzGAp6HlX9-41" target="lSw5uee_YllzGAp6HlX9-44" edge="1">
          <mxGeometry relative="1" as="geometry" />
        </mxCell>
        <mxCell id="lSw5uee_YllzGAp6HlX9-50" style="edgeStyle=orthogonalEdgeStyle;rounded=0;orthogonalLoop=1;jettySize=auto;html=1;" parent="1" source="lSw5uee_YllzGAp6HlX9-46" target="lSw5uee_YllzGAp6HlX9-40" edge="1">
          <mxGeometry relative="1" as="geometry" />
        </mxCell>
        <mxCell id="lSw5uee_YllzGAp6HlX9-52" style="edgeStyle=orthogonalEdgeStyle;rounded=0;orthogonalLoop=1;jettySize=auto;html=1;" parent="1" source="lSw5uee_YllzGAp6HlX9-46" target="lSw5uee_YllzGAp6HlX9-51" edge="1">
          <mxGeometry relative="1" as="geometry" />
        </mxCell>
        <mxCell id="lSw5uee_YllzGAp6HlX9-46" value="Python" style="ellipse;whiteSpace=wrap;html=1;" parent="1" vertex="1">
          <mxGeometry x="280" y="520" width="90" height="50" as="geometry" />
        </mxCell>
        <mxCell id="lSw5uee_YllzGAp6HlX9-51" value="Email" style="shape=dataStorage;whiteSpace=wrap;html=1;fixedSize=1;" parent="1" vertex="1">
          <mxGeometry x="90" y="590" width="100" height="80" as="geometry" />
        </mxCell>
      </root>
    </mxGraphModel>
  </diagram>
</mxfile>
